<mxfile host="app.diagrams.net" modified="2024-05-16T09:14:11.672Z" agent="Mozilla/5.0 (Windows NT 10.0; Win64; x64) AppleWebKit/537.36 (KHTML, like Gecko) Chrome/124.0.0.0 Safari/537.36" version="24.4.2" etag="gPoHad5sEF25Xk_EiY8T" type="github">
  <diagram name="PÃ¡gina-1" id="9DRcJjq7OS1Ig7JnfaU4">
    <mxGraphModel>
      <root>
        <mxCell id="0" />
        <mxCell id="1" parent="0" />
      </root>
    </mxGraphModel>
  </diagram>
</mxfile>
